<svg width="520" height="277" viewBox="0 0 520 277" fill="none" xmlns="http://www.w3.org/2000/svg">
<g clip-path="url(#clip0)">
<path opacity="0.1" d="M480.13 218.837C479.55 220.086 478.973 221.317 478.397 222.533C477.498 224.42 476.611 226.271 475.735 228.086C475.346 228.89 474.956 229.678 474.577 230.467C470.282 239.241 466.272 247.002 462.867 253.383C459.776 259.166 455.188 264.011 449.582 267.411C443.976 270.811 437.558 272.641 431.002 272.709L355.274 273.533H354.475L347.983 273.603L342.43 273.663L325.402 273.848H324.713L316.044 273.942H315.78L262.348 274.522L214.654 275.021L209.106 275.081L174.65 275.456H174.61L152.263 275.695H152.024L81.3639 276.459L60.2259 276.689C55.7151 276.74 51.2232 276.097 46.908 274.781C39.3986 272.513 32.6499 268.24 27.3879 262.422C18.3095 252.42 11.6929 240.749 7.24861 228.086C6.6061 226.258 6.00687 224.407 5.45091 222.533C-9.93444 170.523 8.82161 103.423 42.5785 58.5202C43.9933 56.6426 45.4315 54.8116 46.893 53.0272L46.9279 52.9873C57.3097 40.2434 68.9498 29.5969 81.349 22.0265C103.321 8.58848 127.665 4.80328 151.609 16.084C171.868 25.6319 190.784 30.1212 209.121 31.3397C210.973 31.4595 212.826 31.5494 214.669 31.6043C256.73 32.9277 296.15 17.7719 342.44 7.98924C344.283 7.59973 346.131 7.21522 347.993 6.85068C381.016 0.279004 417.649 -3.1866 461.214 4.09917C465.74 4.83856 470.206 5.90671 474.577 7.29512C476.498 7.91434 478.348 8.58016 480.13 9.29259C500.923 17.7519 512.264 33.3821 517.082 52.9673C517.538 54.785 517.933 56.6343 518.266 58.5153C526.81 105.626 501.787 172.451 480.13 218.837Z" fill="#FDFDFD"/>
<g opacity="0.1">
<path opacity="0.1" d="M81.3466 22.017V276.504L60.2086 276.734C55.6977 276.785 51.2058 276.141 46.8906 274.826V52.9777H46.9255C57.3073 40.2189 68.9474 29.5724 81.3466 22.017Z" fill="#FF005C"/>
<path opacity="0.1" d="M518.292 58.5107H42.5759C43.9908 56.6331 45.429 54.8021 46.8904 53.0177V52.9778H517.108C517.564 54.7855 517.959 56.6298 518.292 58.5107Z" fill="#FF005C"/>
<path opacity="0.1" d="M480.131 9.2882V222.517H478.398C477.499 224.405 476.612 226.256 475.736 228.07C475.346 228.874 474.957 229.663 474.577 230.452V7.27076C476.498 7.88998 478.349 8.56245 480.131 9.2882Z" fill="#FF005C"/>
<path opacity="0.1" d="M347.993 6.82634V273.613L342.441 273.673V7.9649C344.283 7.57539 346.131 7.19088 347.993 6.82634Z" fill="#FF005C"/>
<path opacity="0.1" d="M214.668 31.5799V275.061L209.12 275.121V31.3153C210.972 31.4351 212.825 31.505 214.668 31.5799Z" fill="#FF005C"/>
<path opacity="0.1" d="M478.398 222.523C477.499 224.41 476.611 226.261 475.736 228.075H7.24581C6.60329 226.248 6.00405 224.397 5.44809 222.523H478.398Z" fill="#FF005C"/>
</g>
<path d="M115.154 132.746H105.666V161.54H115.154V132.746Z" fill="#3F3D56"/>
<path d="M370.495 131.248H361.007V161.71H370.495V131.248Z" fill="#3F3D56"/>
<path d="M431.003 266.487V272.979L355.139 273.678L354.33 273.693L325.497 273.957L324.807 273.967L316.044 274.042H315.784L262.362 274.537L174.668 275.351H174.593L152.297 275.56L152.057 275.565L52.9827 276.474V268.984L76.2781 255.002L123.019 254.612L124.018 254.607L124.347 254.602L125.346 254.587L147.787 254.403L148.791 254.398L149.111 254.393L150.109 254.388L157.305 254.328L157.495 254.323L175.247 254.173H175.392L313.916 253.004L317.307 252.98H317.647L320.233 252.955L339.034 252.8L340.033 252.785L340.957 252.775H341.436L347.284 252.73L348.443 252.715L349.996 252.705L354.864 252.66L362.59 252.595L363.588 252.585L365.326 252.575H365.651L402.958 252.255L431.003 266.487Z" fill="#65617D"/>
<path opacity="0.2" d="M431.003 266.487V272.979L355.139 273.678L354.33 273.693L325.497 273.957L324.807 273.967L316.044 274.042H315.784L262.362 274.537L174.668 275.351H174.593L152.297 275.56L152.057 275.565L52.9827 276.474V268.984L76.2781 255.002L123.019 254.612L124.018 254.607L124.347 254.602L125.346 254.587L147.787 254.403L148.791 254.398L149.111 254.393L150.109 254.388L157.305 254.328L157.495 254.323L175.247 254.173H175.392L313.916 253.004L317.307 252.98H317.647L320.233 252.955L339.034 252.8L340.033 252.785L340.957 252.775H341.436L347.284 252.73L348.443 252.715L349.996 252.705L354.864 252.66L362.59 252.595L363.588 252.585L365.326 252.575H365.651L402.958 252.255L431.003 266.487Z" fill="black"/>
<path d="M147.862 241.524V253.752C147.863 254.332 147.699 254.899 147.389 255.389C147.08 255.878 146.638 256.27 146.115 256.519C145.725 256.708 145.299 256.81 144.866 256.818L127.438 257.188C126.973 257.199 126.511 257.102 126.09 256.903C125.558 256.659 125.107 256.267 124.791 255.774C124.475 255.281 124.307 254.708 124.307 254.122V241.524H147.862Z" fill="#3F3D56"/>
<path opacity="0.1" d="M147.862 241.524V253.752C147.863 254.332 147.699 254.899 147.389 255.389C147.08 255.878 146.638 256.27 146.115 256.519C145.725 256.708 145.299 256.81 144.866 256.818L127.438 257.188C126.973 257.199 126.511 257.102 126.09 256.903C125.558 256.659 125.107 256.267 124.791 255.774C124.475 255.281 124.307 254.708 124.307 254.122V241.524H147.862Z" fill="black"/>
<path d="M148.861 241.524V253.752C148.861 254.332 148.697 254.899 148.388 255.389C148.079 255.878 147.637 256.27 147.113 256.519C146.724 256.708 146.298 256.81 145.865 256.818L128.437 257.188C127.972 257.199 127.51 257.102 127.089 256.903C126.556 256.659 126.105 256.267 125.789 255.774C125.473 255.281 125.305 254.708 125.306 254.122V241.524H148.861Z" fill="#3F3D56"/>
<path d="M363.589 241.524H340.034V257.253H363.589V241.524Z" fill="#3F3D56"/>
<path opacity="0.1" d="M363.589 241.524H340.034V257.253H363.589V241.524Z" fill="black"/>
<path d="M362.59 241.524H339.035V257.253H362.59V241.524Z" fill="#3F3D56"/>
<path opacity="0.1" d="M115.154 132.742V135.603L105.666 135.358V132.742H115.154Z" fill="black"/>
<path d="M177.605 52.1338L166.204 134.03C166.132 134.553 165.869 135.031 165.467 135.373C165.064 135.714 164.55 135.896 164.022 135.882L72.7376 133.515L71.0048 133.47C70.7031 133.463 70.4063 133.392 70.1337 133.263C69.8612 133.133 69.619 132.948 69.423 132.718C69.227 132.489 69.0815 132.221 68.9962 131.931C68.9108 131.642 68.8874 131.338 68.9274 131.038L81.7262 45.3075C81.8087 44.7765 82.0874 44.2956 82.5071 43.96C82.9268 43.6244 83.4572 43.4584 83.9933 43.4948L175.607 49.6969C175.903 49.714 176.192 49.7922 176.455 49.9266C176.719 50.061 176.952 50.2486 177.14 50.4775C177.328 50.7065 177.466 50.9719 177.546 51.257C177.626 51.5421 177.646 51.8406 177.605 52.1338Z" fill="#65617D"/>
<path d="M87.8535 49.5171L78.2008 125.086L162.094 127.748L172.411 54.8403L87.8535 49.5171Z" fill="#FF00E5" fill-opacity="0.25"/>
<path d="M291.6 48.3487H194.718C193.248 48.3487 192.056 49.5403 192.056 51.0103V132.242C192.056 133.712 193.248 134.904 194.718 134.904H291.6C293.07 134.904 294.262 133.712 294.262 132.242V51.0103C294.262 49.5403 293.07 48.3487 291.6 48.3487Z" fill="#65617D"/>
<path d="M289.762 54.1763H196.88V126.25H289.762V54.1763Z" fill="#FF00E5" fill-opacity="0.25"/>
<path opacity="0.1" d="M370.495 131.244V133.136L361.007 133.331V131.244H370.495Z" fill="black"/>
<path d="M413.306 129.645C413.319 129.852 413.291 130.06 413.222 130.255C413.154 130.451 413.046 130.631 412.906 130.784C412.766 130.937 412.597 131.06 412.408 131.146C412.219 131.231 412.015 131.278 411.808 131.283L318.326 133.216C317.938 133.224 317.561 133.085 317.271 132.826C316.981 132.568 316.799 132.209 316.763 131.823L308.728 48.2887C308.708 48.0814 308.731 47.8723 308.794 47.674C308.857 47.4757 308.96 47.2923 309.097 47.135C309.233 46.9776 309.4 46.8496 309.587 46.7586C309.774 46.6677 309.978 46.6157 310.186 46.6058L402.959 41.9917L403.958 41.9418C404.355 41.9208 404.744 42.055 405.044 42.3158C405.344 42.5767 405.531 42.9439 405.566 43.34L413.306 129.645Z" fill="#65617D"/>
<path d="M314.066 51.5146L398.794 47.3499L405.95 123.253L321.892 125.251L314.066 51.5146Z" fill="#FF00E5" fill-opacity="0.25"/>
<path opacity="0.1" d="M413.306 129.646C413.319 129.853 413.291 130.06 413.222 130.256C413.154 130.451 413.046 130.631 412.906 130.784C412.766 130.937 412.597 131.06 412.408 131.146C412.219 131.232 412.015 131.279 411.808 131.284L402.958 41.9917L403.957 41.9418C404.354 41.9208 404.744 42.055 405.044 42.3158C405.344 42.5767 405.531 42.9439 405.565 43.34L413.306 129.646Z" fill="black"/>
<path opacity="0.1" d="M84.0085 43.4897L72.7377 133.516L71.0048 133.471C70.7031 133.464 70.4063 133.393 70.1338 133.263C69.8612 133.134 69.619 132.948 69.423 132.719C69.227 132.489 69.0815 132.221 68.9962 131.932C68.9108 131.642 68.8874 131.338 68.9274 131.039L81.7264 45.3074C81.8079 44.7727 82.0883 44.2885 82.5113 43.9515C82.9344 43.6145 83.4691 43.4496 84.0085 43.4897Z" fill="black"/>
<path opacity="0.1" d="M115.154 153.011H105.666V161.54H115.154V153.011Z" fill="black"/>
<path opacity="0.1" d="M148.861 241.518V244L125.306 244.629V241.518H148.861Z" fill="black"/>
<path d="M190.433 155.982V239.975C190.427 240.488 190.224 240.979 189.866 241.346C189.508 241.713 189.023 241.928 188.51 241.948L92.8073 244.494H92.7823C92.2612 244.488 91.7632 244.278 91.3947 243.909C91.0262 243.541 90.8163 243.043 90.8098 242.522V155.982C90.8163 155.461 91.0262 154.963 91.3947 154.594C91.7632 154.226 92.2612 154.016 92.7823 154.01H188.461C188.982 154.016 189.48 154.226 189.848 154.594C190.217 154.963 190.427 155.461 190.433 155.982Z" fill="#65617D"/>
<path opacity="0.1" d="M92.8072 154.01V244.494H92.7822C92.2611 244.488 91.7632 244.278 91.3947 243.909C91.0262 243.541 90.8163 243.043 90.8098 242.522V155.982C90.8163 155.461 91.0262 154.963 91.3947 154.594C91.7632 154.226 92.2611 154.016 92.7822 154.01H92.8072Z" fill="black"/>
<path d="M97.1766 159.373H185.814V233.403L97.1766 235.401V159.373Z" fill="#D4DFEC"/>
<path opacity="0.1" d="M370.495 153.011H361.007V161.71H370.495V153.011Z" fill="black"/>
<path opacity="0.1" d="M362.59 241.518V244.719L339.035 244.09V241.518H362.59Z" fill="black"/>
<path d="M393.676 155.982V242.522C393.669 243.047 393.456 243.549 393.082 243.918C392.708 244.287 392.204 244.494 391.678 244.494L295.954 241.948C295.442 241.928 294.957 241.713 294.599 241.346C294.241 240.979 294.038 240.488 294.032 239.975V155.982C294.038 155.461 294.248 154.963 294.617 154.594C294.985 154.226 295.483 154.016 296.004 154.01H391.683C392.208 154.011 392.711 154.218 393.084 154.588C393.457 154.957 393.669 155.457 393.676 155.982Z" fill="#65617D"/>
<path opacity="0.1" d="M393.676 155.982V242.522C393.669 243.047 393.456 243.549 393.082 243.918C392.708 244.287 392.203 244.494 391.678 244.494V154.01C392.203 154.01 392.708 154.217 393.082 154.586C393.456 154.955 393.669 155.457 393.676 155.982Z" fill="black"/>
<path d="M387.308 159.373H298.671V233.403L387.308 235.401V159.373Z" fill="#D4DFEC"/>
<path d="M291.555 155.982V239.975C291.549 240.488 291.346 240.979 290.988 241.346C290.63 241.713 290.145 241.928 289.633 241.948L193.929 244.494C193.403 244.494 192.899 244.287 192.525 243.918C192.151 243.549 191.938 243.047 191.931 242.522V155.982C191.938 155.461 192.148 154.963 192.516 154.594C192.885 154.226 193.383 154.016 193.904 154.01H289.583C290.104 154.016 290.602 154.226 290.97 154.594C291.339 154.963 291.549 155.461 291.555 155.982Z" fill="#65617D"/>
<path d="M198.298 159.373H286.936V233.403L198.298 235.401V159.373Z" fill="#D4DFEC"/>
<path opacity="0.1" d="M431.003 266.487V272.979L355.139 273.678L354.33 273.693L325.497 273.957L324.807 273.967L316.044 274.042H315.784L262.362 274.537L174.668 275.351H174.593L152.297 275.56L152.057 275.565L52.9827 276.474V268.984L154.109 268.32H154.349L174.818 268.18H174.913L316.273 267.246H316.418L316.503 267.241H316.738L319.13 267.226H319.859L357.057 266.976L359.254 266.966L359.743 266.961L431.003 266.487Z" fill="black"/>
<path d="M243.321 161.54C257.478 161.54 268.954 150.064 268.954 135.908C268.954 121.751 257.478 110.275 243.321 110.275C229.165 110.275 217.689 121.751 217.689 135.908C217.689 150.064 229.165 161.54 243.321 161.54Z" fill="#FBBEBE"/>
<path d="M268.959 188.341C268.959 188.341 219.271 194.333 224.015 188.341C225.733 186.174 226.208 179.752 226.113 172.436C226.083 170.214 226.003 167.912 225.888 165.62C225.339 154.634 224.015 143.897 224.015 143.897C224.015 143.897 267.461 123.423 262.467 139.653C260.469 146.209 261.124 155.418 262.642 164.062C263.086 166.584 263.6 169.055 264.14 171.402C265.456 177.127 267.064 182.781 268.959 188.341Z" fill="#FBBEBE"/>
<path opacity="0.1" d="M268.959 188.341C268.959 188.341 219.271 194.333 224.015 188.341C225.733 186.174 226.208 179.752 226.113 172.436C233.688 169.2 243.326 171.612 243.326 171.612C253.473 169.59 259.98 169.984 264.14 171.403C265.456 177.127 267.064 182.781 268.959 188.341Z" fill="black"/>
<path d="M174.648 275.914V275.495L262.347 274.541L315.779 274.041H315.929L315.874 274.781L315.949 274.041H316.044V273.957L316.728 267.24L316.987 264.698L317.067 263.904L317.137 263.24L320.223 252.948L323.309 242.672L325.906 234.018L329.871 220.795C329.871 220.795 327.624 215.551 326.376 214.053C325.127 212.555 323.879 202.318 323.879 202.318C323.879 202.318 313.222 192.166 308.563 190.998C306.611 190.498 302.756 189.834 298.661 189C297.128 188.691 295.555 188.361 294.042 188.001C293.188 187.807 292.349 187.602 291.545 187.397C289.98 187.006 288.438 186.53 286.926 185.969C286.133 185.681 285.378 185.297 284.678 184.825C281.008 182.134 271.81 181.829 271.455 181.829C271.454 181.818 271.454 181.806 271.455 181.794V181.749C271.468 181.54 271.468 181.33 271.455 181.12C271.455 180.92 271.455 180.686 271.41 180.421C271.41 180.341 271.41 180.256 271.375 180.171C271.35 179.992 271.32 179.802 271.276 179.602C271.26 179.513 271.24 179.425 271.216 179.337C271.071 178.736 270.862 178.151 270.591 177.595C270.556 177.515 270.511 177.43 270.472 177.35C270.227 176.889 269.943 176.449 269.623 176.037C269.558 175.952 269.488 175.862 269.413 175.777C269.004 175.295 268.549 174.853 268.055 174.459C267.92 174.354 267.78 174.244 267.635 174.144C267.554 174.079 267.469 174.019 267.38 173.964L266.936 173.675L266.522 173.435C266.157 173.235 265.772 173.041 265.353 172.856C265.223 172.796 265.083 172.741 264.944 172.686C264.804 172.631 264.584 172.546 264.399 172.476H264.369L263.995 172.326C263.71 172.232 263.42 172.147 263.116 172.062L262.651 171.942L262.152 171.827L261.653 171.722C261.153 171.622 260.619 171.532 260.06 171.463L259.49 171.393L258.906 171.333L258.302 171.283L257.443 171.233L256.444 171.198C252.04 171.197 247.647 171.665 243.341 172.591C240.349 171.925 237.285 171.644 234.223 171.752H233.788L233.289 171.782H232.969L232.325 171.842C232.11 171.842 231.891 171.887 231.676 171.917C231.461 171.947 231.236 171.972 231.022 172.007L230.692 172.062C230.367 172.117 230.038 172.177 229.693 172.247C229.583 172.267 229.474 172.291 229.364 172.321C228.929 172.416 228.495 172.531 228.065 172.661C227.851 172.721 227.636 172.791 227.421 172.866C227.311 172.896 227.206 172.936 227.102 172.976L226.782 173.09L226.467 173.215L226.093 173.365C225.903 173.445 225.718 173.53 225.534 173.62C225.429 173.665 225.324 173.715 225.224 173.77C225.124 173.825 225.019 173.869 224.924 173.924C223.795 174.508 222.752 175.244 221.823 176.112L221.569 176.356L221.319 176.611C221.234 176.696 221.154 176.786 221.074 176.876C220.749 177.231 220.445 177.607 220.165 177.999C220.086 178.104 220.011 178.209 219.936 178.319C219.619 178.786 219.332 179.273 219.077 179.777C219.012 179.897 218.952 180.022 218.892 180.141C218.485 180.985 218.15 181.862 217.893 182.763C217.8 183.096 217.715 183.429 217.639 183.762C217.639 183.762 207.067 188.426 198.298 191.802C195.966 192.7 193.769 193.514 191.931 194.129C191.397 194.308 190.898 194.473 190.433 194.628C189.426 194.992 188.378 195.234 187.312 195.347C186.81 195.355 186.309 195.402 185.814 195.487C181.784 196.141 174.878 198.982 174.124 201.834C174.063 202.061 174.046 202.299 174.074 202.533C174.074 202.533 174.074 202.568 174.074 202.588C174.573 206.083 171.078 205.584 171.078 205.584C171.078 205.584 169.829 214.822 168.082 217.319C166.818 219.117 165.954 223.127 165.844 226.153C165.782 227.095 165.856 228.042 166.064 228.964C166.064 228.989 166.064 229.014 166.064 229.034C166.264 229.703 165.785 231.531 164.971 233.873C164.087 236.445 162.798 239.64 161.56 242.657C159.692 247.211 157.935 251.345 157.825 252.254C157.78 252.659 157.65 253.383 157.47 254.317C156.741 258.122 155.123 265.368 154.324 268.299C153.73 270.486 152.866 273.482 152.272 275.54C152.272 275.599 152.237 275.659 152.222 275.714L174.608 275.495V275.914H174.678H174.648Z" fill="#FF005C"/>
<path opacity="0.1" d="M182.818 217.054C182.818 217.054 211.282 231.786 221.519 230.038L182.818 217.054Z" fill="black"/>
<path opacity="0.1" d="M240.744 211.062C240.744 211.062 268.459 220.051 277.698 221.299C286.936 222.548 240.744 211.062 240.744 211.062Z" fill="black"/>
<path opacity="0.1" d="M271.485 182.139C257.004 184.805 229.738 184.231 217.953 183.826C222.273 168.346 243.336 173.609 243.336 173.609C269.408 168.406 271.406 179.202 271.485 182.139Z" fill="black"/>
<path d="M271.485 181.14C257.004 183.807 229.738 183.232 217.953 182.828C222.273 167.347 243.336 172.611 243.336 172.611C269.408 167.407 271.406 178.204 271.485 181.14Z" fill="#FF005C"/>
<path d="M348.358 249.388C348.358 249.388 365.416 246.766 365.751 254.257C366.085 261.747 357.052 266.98 357.052 266.98L348.358 249.388Z" fill="#FBBEBE"/>
<path opacity="0.1" d="M262.642 164.062C261.908 164.39 261.158 164.68 260.395 164.931C255.011 166.788 249.583 168.661 243.916 169.34C238.248 170.019 232.3 169.42 227.357 166.594C226.838 166.3 226.337 165.975 225.859 165.62C225.309 154.634 223.986 143.897 223.986 143.897C223.986 143.897 267.431 123.423 262.437 139.653C260.449 146.209 261.124 155.418 262.642 164.062Z" fill="black"/>
<path d="M236.29 95.8434C235.577 96.0316 234.831 96.0506 234.109 95.8989C233.388 95.7471 232.712 95.4289 232.135 94.9695L233.174 96.4126C232.562 96.4833 231.942 96.4193 231.357 96.2252C230.772 96.0312 230.237 95.7117 229.788 95.2891C229.694 96.581 229.748 97.8794 229.948 99.1592C228.23 99.242 226.537 98.711 225.174 97.6611C225.148 98.1116 225.26 98.5594 225.496 98.9442C225.731 99.329 226.079 99.6324 226.493 99.8133C224.766 99.6071 223.024 100.036 221.59 101.02C220.157 102.004 219.13 103.476 218.703 105.162L221.309 105.401C219.261 105.839 217.422 106.961 216.096 108.582C215.297 109.581 214.688 110.859 215.037 112.078C215.387 113.296 217.075 114.075 217.993 113.206C216.686 114.766 215.737 116.593 215.21 118.559C214.684 120.525 214.594 122.583 214.947 124.587C215.184 125.441 215.262 126.331 215.177 127.214C215.012 128.037 214.493 128.752 214.233 129.556C213.734 131.014 214.208 132.597 214.653 134.05L216.995 141.75C217.844 144.532 218.688 147.318 219.796 150.01C220.581 151.711 221.249 153.465 221.794 155.258C222.423 157.675 222.448 160.321 223.791 162.434C224.712 163.763 225.942 164.848 227.377 165.595C232.315 168.421 238.283 169.02 243.935 168.341C249.588 167.662 255.011 165.79 260.39 163.932C261.584 163.572 262.731 163.069 263.805 162.434C267.525 159.997 268.354 155.013 269.048 150.624C269.822 145.73 270.856 140.846 272.689 136.242C273.777 133.501 275.186 130.719 274.946 127.783C274.641 123.883 271.555 120.722 270.791 116.887C270.535 115.605 270.547 114.284 270.826 113.007C271.063 112.246 271.196 111.456 271.221 110.66C271.136 109.052 269.817 107.813 268.579 106.779C265.892 104.536 263.119 102.415 260.26 100.418C260.115 99.4188 261.473 98.9894 262.087 98.2004C262.956 97.0868 262.057 95.319 260.739 94.7997C259.421 94.2803 257.943 94.6199 256.569 94.9645C256.659 94.2616 256.519 93.5485 256.171 92.9315C255.822 92.3144 255.284 91.8262 254.636 91.5395C253.988 91.2528 253.265 91.1829 252.574 91.3403C251.883 91.4976 251.262 91.8737 250.802 92.4127C250.437 91.5765 249.854 90.8535 249.115 90.3194C248.375 89.7853 247.506 89.4597 246.597 89.3766C243.286 89.1169 243.221 91.6487 241.104 93.0419C238.987 94.4352 237.239 92.5975 235.611 91.2592C235.312 92.0157 235.217 92.8376 235.336 93.6423C235.456 94.447 235.785 95.2061 236.29 95.8434Z" fill="#3F3D56"/>
<path d="M361.007 264.369C361.007 264.369 360.562 265.428 359.743 266.961C358.504 269.319 356.996 271.526 355.249 273.537L355.114 273.682H354.305L325.472 273.947H324.783L324.698 273.847L319.105 267.211L316.998 264.709L316.913 264.604L316.733 264.394L316.633 264.274L316.503 264.119L312.404 259.256L313.902 253.014L316.453 242.497L316.518 242.242L317.018 240.245L317.372 238.747L318.561 233.863L322.635 217.06L329.876 220.805L337.511 234.288L341.611 241.528H343.858C344.283 241.528 345.257 242.347 346.235 243.291C346.585 243.626 346.934 243.98 347.234 244.29C348.123 245.209 348.827 245.998 348.827 245.998C348.827 245.998 352.467 246.078 353.446 248.944C353.497 249.083 353.538 249.224 353.571 249.368C353.896 250.495 354.319 251.591 354.834 252.644C355.479 254.047 356.288 255.64 357.107 257.233C358.63 260.155 360.178 262.936 360.747 263.945L360.817 264.07L361.007 264.369Z" fill="#FF005C"/>
<path opacity="0.1" d="M318.111 241.823L318.061 242.537V242.587L317.976 243.735L317.312 252.978L316.508 264.114L316.278 267.25L315.779 273.962V274.046L262.347 274.546L174.663 275.495V275.914H174.594V275.495V275.355L174.818 268.184L175.248 254.172L175.617 242.292L175.652 241.109C175.674 240.394 175.841 239.692 176.144 239.044C176.446 238.397 176.877 237.818 177.411 237.342C177.945 236.867 178.57 236.506 179.248 236.28C179.926 236.054 180.643 235.969 181.355 236.03C183.712 236.23 186.773 236.474 190.433 236.734L191.931 236.844C213.07 238.312 252.135 240.21 291.555 237.843C292.384 237.798 293.218 237.748 294.052 237.688C300.164 237.303 306.271 236.809 312.319 236.19C313.083 236.11 313.856 236.198 314.582 236.449C315.309 236.7 315.972 237.107 316.524 237.642C317.076 238.176 317.504 238.825 317.779 239.543C318.053 240.262 318.166 241.031 318.111 241.798V241.823Z" fill="black"/>
<path d="M174.649 275.915V275.495L262.347 274.541L315.779 274.042H315.929V273.957L316.428 267.246L316.643 264.249L317.462 252.959L318.106 244.02V243.8C318.136 243.388 318.117 242.974 318.051 242.567C318.054 242.55 318.054 242.533 318.051 242.517C317.914 241.674 317.571 240.878 317.052 240.2C316.502 239.495 315.782 238.941 314.959 238.592C314.136 238.242 313.237 238.108 312.348 238.202C306.301 238.822 300.194 239.316 294.082 239.7C293.248 239.76 292.414 239.81 291.585 239.855C252.165 242.197 213.1 240.3 191.962 238.856L190.464 238.747C186.803 238.487 183.742 238.247 181.385 238.042C180.088 237.933 178.797 238.308 177.761 239.095C176.724 239.881 176.016 241.024 175.772 242.302C175.722 242.572 175.692 242.846 175.682 243.121L175.343 254.187L174.878 268.204L174.659 275.375V275.515V275.935L174.649 275.915Z" fill="#3F3D56"/>
<path opacity="0.1" d="M318.261 245.324L317.647 252.979L316.733 264.389L316.503 267.246L316.004 273.642L315.974 273.962V274.047L315.899 274.786L315.954 274.047H315.809L262.377 274.546L174.663 275.495V275.355L174.908 268.184L175.407 254.172L175.727 244.859C175.742 244.33 175.891 243.812 176.157 243.354C176.424 242.896 176.802 242.512 177.255 242.238C177.82 241.891 178.481 241.734 179.142 241.788C180.191 241.873 181.479 241.973 182.983 242.083C185.424 242.263 188.436 242.472 191.941 242.692C198.433 243.102 206.578 243.541 215.911 243.901C241.878 244.899 276.933 245.234 310.231 242.318C311.729 242.188 313.277 242.043 314.79 241.898C315.389 241.838 315.993 241.953 316.528 242.228C316.68 242.303 316.824 242.394 316.958 242.497C317.392 242.812 317.737 243.236 317.956 243.726C318.007 243.823 318.049 243.925 318.081 244.03C318.231 244.444 318.292 244.885 318.261 245.324Z" fill="black"/>
<path opacity="0.1" d="M148.861 252.161V253.753C148.861 254.332 148.697 254.9 148.388 255.389C148.079 255.879 147.637 256.27 147.113 256.519L127.089 256.903C126.556 256.659 126.105 256.267 125.789 255.775C125.473 255.282 125.305 254.708 125.306 254.123V252.625L148.861 252.161Z" fill="black"/>
<path d="M149.111 257.458L123.019 257.957V253.628L149.111 253.129V257.458Z" fill="#3F3D56"/>
<path opacity="0.1" d="M149.111 257.458L123.019 257.957V253.628L149.111 253.129V257.458Z" fill="black"/>
<path d="M150.11 257.458L124.018 257.957V253.628L150.11 253.129V257.458Z" fill="#3F3D56"/>
<g opacity="0.1">
<path opacity="0.1" d="M236.495 94.2054C236.007 93.5715 235.683 92.8271 235.551 92.0381C235.431 92.8094 235.503 93.5985 235.761 94.3352C236.009 94.3123 236.254 94.2689 236.495 94.2054Z" fill="black"/>
<path opacity="0.1" d="M230.153 97.5211C230.059 96.909 229.997 96.2923 229.969 95.6736C229.969 96.2878 229.969 96.9069 229.969 97.5261L230.153 97.5211Z" fill="black"/>
<path opacity="0.1" d="M270.851 114.185C270.879 113.74 270.939 113.298 271.031 112.862C271.267 112.102 271.402 111.315 271.43 110.52C271.419 110.341 271.393 110.164 271.351 109.99C271.266 110.45 271.131 110.909 271.031 111.364C270.832 112.29 270.771 113.241 270.851 114.185Z" fill="black"/>
<path opacity="0.1" d="M260.464 98.7547L261.009 99.1491C261.468 98.8172 261.897 98.4463 262.292 98.0406C262.48 97.7807 262.596 97.476 262.63 97.1571C262.663 96.8381 262.612 96.516 262.482 96.2229C262.432 96.3369 262.368 96.4442 262.292 96.5425C261.678 97.3315 260.32 97.7659 260.464 98.7547Z" fill="black"/>
<path opacity="0.1" d="M219.431 103.558C219.249 103.923 219.104 104.304 218.997 104.697C219.778 104.261 220.62 103.943 221.494 103.753L219.431 103.558Z" fill="black"/>
<path opacity="0.1" d="M226.318 98.1255C225.99 97.9448 225.676 97.7394 225.379 97.5112C225.367 97.7088 225.382 97.9071 225.424 98.1005C225.722 98.0863 226.021 98.0947 226.318 98.1255Z" fill="black"/>
<path opacity="0.1" d="M275.141 127.548C274.936 129.97 273.807 132.302 272.894 134.599C271.061 139.203 270.027 144.087 269.253 148.986C268.559 153.375 267.755 158.359 264.01 160.791C262.94 161.43 261.794 161.933 260.599 162.289C255.216 164.152 249.788 166.019 244.12 166.698C238.452 167.377 232.505 166.783 227.561 163.957C226.128 163.209 224.897 162.124 223.976 160.796C222.642 158.684 222.617 156.037 221.978 153.62C221.433 151.825 220.766 150.07 219.981 148.367C218.877 145.68 218.028 142.874 217.184 140.112C216.402 137.546 215.621 134.977 214.842 132.407C214.586 131.634 214.395 130.841 214.273 130.035C214.078 131.314 214.458 132.652 214.842 133.905C215.621 136.479 216.402 139.047 217.184 141.61C218.028 144.392 218.877 147.178 219.981 149.865C220.766 151.568 221.433 153.323 221.978 155.118C222.607 157.535 222.632 160.182 223.976 162.294C224.897 163.622 226.128 164.707 227.561 165.455C232.505 168.281 238.467 168.876 244.12 168.196C249.773 167.517 255.196 165.65 260.599 163.787C261.794 163.432 262.94 162.928 264.01 162.289C267.73 159.857 268.559 154.873 269.253 150.484C270.027 145.585 271.061 140.702 272.894 136.097C273.982 133.361 275.391 130.58 275.151 127.638C275.151 127.608 275.141 127.578 275.141 127.548Z" fill="black"/>
<path opacity="0.1" d="M215.372 125.615C215.372 125.615 215.372 125.58 215.372 125.561C215.462 124.68 215.384 123.79 215.142 122.939C215.042 122.391 214.977 121.837 214.947 121.281C214.89 122.337 214.955 123.396 215.142 124.437C215.222 124.826 215.312 125.221 215.372 125.615Z" fill="black"/>
<path opacity="0.1" d="M216.895 113.401C217.279 112.756 217.715 112.143 218.198 111.568C217.285 112.442 215.597 111.663 215.242 110.45C215.111 110.941 215.111 111.457 215.242 111.948C215.365 112.314 215.583 112.642 215.873 112.897C216.163 113.152 216.516 113.326 216.895 113.401Z" fill="black"/>
</g>
<path opacity="0.1" d="M341.617 241.524C341.617 241.524 343.2 247.266 341.617 252.26C340.034 257.254 341.617 241.524 341.617 241.524Z" fill="black"/>
<path opacity="0.1" d="M348.358 247.381C348.358 247.381 349.022 254.672 347.524 255.965C346.026 257.259 348.358 247.381 348.358 247.381Z" fill="black"/>
<path d="M99.369 171.213L150.11 170.713" stroke="#FF005C" stroke-width="2" stroke-miterlimit="10"/>
<path d="M99.369 177.44L150.11 176.946" stroke="#FF005C" stroke-width="2" stroke-miterlimit="10"/>
<path d="M99.369 183.672L150.11 183.172" stroke="#FF005C" stroke-width="2" stroke-miterlimit="10"/>
</g>
<defs>
<clipPath id="clip0">
<rect width="520" height="276.734" fill="white"/>
</clipPath>
</defs>
</svg>
